<?xml version="1.0" encoding="utf-8"?>
<!-- Generator: Adobe Illustrator 24.3.0, SVG Export Plug-In . SVG Version: 6.00 Build 0)  -->
<svg version="1.1" id="ee693e3f-f1dd-423f-8d69-5f6c61e6de89"
	 xmlns="http://www.w3.org/2000/svg" xmlns:xlink="http://www.w3.org/1999/xlink" x="0px" y="0px" viewBox="0 0 804.9 802.9"
	 style="enable-background:new 0 0 804.9 802.9;" xml:space="preserve">
<style type="text/css">
	.st0{fill:#F2F2F2;}
	.st1{fill:#3F3D56;}
	.st2{opacity:0.1;enable-background:new    ;}
	.st3{fill:#FFB9B9;}
	.st4{fill:#575A89;}
	.st5{fill:#2F2E41;}
	.st6{fill:#D1D9EC;}
	.st7{fill:#4C4C56;}
	.st8{fill:#DFE6F5;}
	.st9{fill:#FFFFFF;}
</style>
<path class="st0" d="M788.1,298.2C744.8,128,595.2,5.1,419.6,0.1C326.8-2.5,229.1,28.3,158,136c-127.1,192.6,7.8,325.6,101.9,388.9
	c45.4,30.6,86.4,67.4,121.7,109.4c63.5,75.4,185.8,169.1,331.4,22.3C818.5,550.1,816.9,411.5,788.1,298.2z"/>
<ellipse class="st1" cx="392" cy="753.4" rx="392" ry="49.5"/>
<ellipse class="st2" cx="392" cy="744.1" rx="348" ry="34.7"/>
<rect x="199.8" y="450.4" class="st1" width="20.4" height="310.5"/>
<polygon class="st1" points="381.6,442.3 381.6,450.4 48.6,454.5 48.6,446.4 49,446.1 107.8,407.5 355,407.5 "/>
<path class="st3" d="M322.3,393.2c0,0-73.5,6.1-49,24.5c24.5,18.4,49-12.3,49-12.3V393.2z"/>
<polygon class="st2" points="381.6,442.5 381.6,450.4 48.6,454.5 48.6,446.4 49,446.1 "/>
<path class="st4" d="M432.7,293.1l1.8-6.7c0,0-24.3,43.5-26.3,47.6s-36.8,38.8-40.9,44.9c-2.8,4-6.2,7.4-10.2,10.2h-38.8
	c0,0-8.2,26.6,4.1,28.6s51.1,10.2,59.2,10.2s59.2-47,59.2-47L432.7,293.1z"/>
<polygon class="st1" points="440.8,589.4 428.6,761 440.8,761 455.1,585.3 "/>
<polygon class="st1" points="590,568.9 577.7,740.6 590,740.6 604.3,564.9 "/>
<polygon class="st1" points="612.4,589.4 600.2,761 612.4,761 626.7,585.3 "/>
<polygon class="st1" points="422.4,573 410.2,744.6 422.4,744.6 436.7,568.9 "/>
<polygon class="st1" points="659.4,354.4 624.7,603.7 418.4,595.5 419.7,572.5 422.4,528.1 581.8,536.3 608.4,354.4 "/>
<path class="st2" d="M659.4,354.4l-34.7,249.2l-206.3-8.2l1.4-23c43.1,1.7,188.6-7.6,188.6-7.6c0-32.6,28.6-160.3,40.2-210.4
	L659.4,354.4z"/>
<path class="st3" d="M297.8,656.8c0,0-6.1,47-18.4,55.2c-12.3,8.2,51.1,18.4,51.1,18.4l4.1-61.3L297.8,656.8z"/>
<path class="st3" d="M504.2,677.2c0,0,10.2,12.3,12.3,20.4s32.7,12.3,32.7,12.3l22.5-24.5c0,0-28.6-24.5-36.8-24.5
	S504.2,677.2,504.2,677.2z"/>
<circle class="st3" cx="450" cy="206.3" r="49"/>
<path class="st3" d="M436.7,240c0,0,24.5,47,20.4,55.2s53.1-38.8,53.1-38.8s-20.4-32.7-20.4-42.9S436.7,240,436.7,240z"/>
<path class="st5" d="M459.2,481.1c0,0-157.3-24.5-163.4,32.7c-6.1,57.2-28.6,130.8-30.6,136.9c-2,6.1,67.4,40.9,75.6,28.6
	s22.5-110.3,18.4-118.5s-6.1-18.4,2-16.3s98.1,20.4,116.5,14.3s65.4-87.8,65.4-87.8L459.2,481.1z"/>
<path class="st2" d="M459.2,481.1c0,0-157.3-24.5-163.4,32.7c-6.1,57.2-28.6,130.8-30.6,136.9c-2,6.1,67.4,40.9,75.6,28.6
	s22.5-110.3,18.4-118.5s-6.1-18.4,2-16.3s98.1,20.4,116.5,14.3s65.4-87.8,65.4-87.8L459.2,481.1z"/>
<path class="st5" d="M455.1,468.8l6.1,51.1c0,0-98.1,36.8-61.3,96s77.6,91.9,77.6,91.9s65.4-36.8,65.4-47s-79.7-67.4-69.5-67.4
	s157.3-8.2,126.7-89.9S455.1,468.8,455.1,468.8z"/>
<path class="st5" d="M295.8,714c0,0-16.3-18.4-16.3-14.3s-47,28.6-55.2,30.6s-20.4,6.1-4.1,12.3s120.5,8.2,120.5,4.1
	s4.1-42.9-4.1-38.8S297.8,722.2,295.8,714z"/>
<path class="st5" d="M536.8,699.7c0,0-22.5-6.1-24.5,0s-4.1,30.6-22.5,38.8s-24.5,20.4,0,22.5s91.9-44.9,91.9-53.1
	s-8.2-32.7-12.3-30.6S555.2,697.6,536.8,699.7z"/>
<rect x="163" y="726.3" class="st1" width="94" height="36.8"/>
<path class="st4" d="M510.3,244.1c0,0-7.6-20.4-21.2-8.2S449,278.8,449,278.8s-16.3,6.1-22.5,16.3s-6.1,77.6,6.1,100.1
	s12.3,61.3,16.3,71.5s0,20.4,14.3,20.4s-8.2-16.3,38.8,0s100.1,36.8,104.2,22.5c4.1-14.3-6.1-22.5,0-28.6s0-8.2-4.1-22.5
	s-8.2-16.3-10.2-34.7s0-36.8-4.1-44.9s-4.1-20.4-4.1-40.9s-12.3-61.3-34.7-73.5S510.3,244.1,510.3,244.1z"/>
<path class="st5" d="M402.1,151.8c11.4-11.1,23.4-22.6,38.5-27.4c20.2-6.5,42.8,0.3,60.2,12.5c3.8,2.6,7.4,5.6,9.7,9.6
	c2.1,3.7,2.8,7.9,3.5,12.1c2.3,14.6,4.2,29.4,3.1,44.2s-5.5,29.6-14.6,41.3c-8.1-8.6-14.2-18.8-18.2-29.9c-1-2.9-2-6-4.1-8.4
	s-5.8-3.6-8.4-1.9c-3.6,2.3-3.2,8.6-7,10.6c-1.3,0.6-2.8,0.8-4.2,0.4c-10-1.7-13.5-14-20.1-21.8c-9.6-11.5-23.1-10.8-36.3-14.1
	C389.1,175.1,392.9,160.8,402.1,151.8z"/>
<path class="st3" d="M392.9,411c0,0-67.7-18-73.2-2.5s57.8,29.8,57.8,29.8h26.6L392.9,411z"/>
<path class="st4" d="M534.8,276.8c0,0-30.6,22.5-38.8,55.2s-14.3,67.4-14.3,67.4l-94,12.3c0,0-8.2,32.7,4.1,34.7s104.2,8.2,118.5,0
	s63.3-110.3,61.3-120.5S565.4,278.8,534.8,276.8z"/>
<path class="st6" d="M168.6,422.1l33.2,2.7l47.3-3.1l-0.8-0.1l-43.8-4.2c-10-3.7-3.1-25.4-3.1-25.4l-33.6,1.7l-2.7,0.1
	C153.2,421.6,168.6,422.1,168.6,422.1z"/>
<path class="st2" d="M168.6,422.1l33.2,2.7l47.3-3.1l-0.8-0.1l-47.8,1.7l-32.1-3.5c-9.1-2.4-3.9-18.2-0.6-26.2l-2.7,0.1
	C153.2,421.6,168.6,422.1,168.6,422.1z"/>
<path class="st7" d="M113.5,223.7l9.9,144.2v17.4c0.3,4.4,2.4,12,6.8,12l8.1-7H285c2.5,0-6-3.7-6.2-6.2l10.3-5.4l-10.8-105.7
	c-0.3-3.4-2.6-6.3-5.9-7.4l-145.7-50.4c-5-1.7-10-1.1-13.2,1.5C111.5,218.4,113.3,220.1,113.5,223.7z"/>
<path class="st8" d="M120.6,370.4l1.3,19.1c0.3,4.4,4,7.8,8.3,7.7l3.1,0l152.9-0.9c2.4,0,4.3-1.9,4.3-4.3c0-0.1,0-0.3,0-0.4
	l-1.3-12.9L120.6,370.4z"/>
<ellipse class="st9" cx="223.1" cy="386.2" rx="2" ry="4.1"/>
<path class="st6" d="M148.2,426.9c0,0-41.8-15.8-53.1-4.3c0,0-1.8,3.5,5.7,4.3l30.6,2.5C131.5,429.3,144.1,430.5,148.2,426.9z"/>
<path class="st8" d="M147.1,422.7c-8.2-3.4-32.9-12-48.7-2.4c0,0,17.5-1.9,27.1,3.6s22.7,2.9,22.7,2.9l0.2-0.3
	c0.7-1.3,0.3-2.9-1-3.6C147.3,422.8,147.2,422.8,147.1,422.7z"/>
<path class="st8" d="M110.4,224.7l11.5,164.8c0.3,4.4,4,7.8,8.3,7.7l3.1,0c-2.1-2-3.9-4.3-5.3-6.9c0,0-11.3-165.6-12.1-169.7
	c-0.4-1.5-1.1-2.9-2.3-4.1C111.3,218.6,110.1,221.6,110.4,224.7z"/>
<path class="st2" d="M110.4,224.7l11.5,164.8c0.3,4.4,4,7.8,8.3,7.7l3.1,0c-2.1-2-3.9-4.3-5.3-6.9c0,0-11.3-165.6-12.1-169.7
	c-0.4-1.5-1.1-2.9-2.3-4.1C111.3,218.6,110.1,221.6,110.4,224.7z"/>
</svg>
